<?xml version="1.0" encoding="UTF-8" standalone="no"?><!DOCTYPE svg PUBLIC "-//W3C//DTD SVG 1.1//EN" "http://www.w3.org/Graphics/SVG/1.1/DTD/svg11.dtd"><svg width="100%" height="100%" viewBox="0 0 800 800" version="1.1" xmlns="http://www.w3.org/2000/svg" xmlns:xlink="http://www.w3.org/1999/xlink" xml:space="preserve" xmlns:serif="http://www.serif.com/" style="fill-rule:evenodd;clip-rule:evenodd;stroke-linejoin:round;stroke-miterlimit:2;"><rect id="Artboard3" x="0" y="0" width="800" height="800" style="fill:none;"/><text x="50.164px" y="256.547px" style="font-family:'DIN-Bold', 'DIN';font-weight:700;font-size:135.443px;fill:#fbfbd8;">t<tspan x="92.693px 165.781px 235.912px 261.542px 377.864px 409.549px 483.201px 514.886px 577.044px 619.573px 676.607px " y="256.547px 256.547px 256.547px 256.547px 256.547px 256.547px 256.547px 256.547px 256.547px 256.547px 256.547px ">he ministry</tspan></text><text x="339.516px" y="392.77px" style="font-family:'DIN-Bold', 'DIN';font-weight:700;font-size:135.443px;fill:#fbfbd8;">o<tspan x="408.942px " y="392.77px ">f</tspan></text><text x="-1.619px" y="503.394px" style="font-family:'DIN-Bold', 'DIN';font-weight:700;font-size:135.443px;fill:#fbfbd8;">e<tspan x="67.699px 134.873px 177.402px 233.082px 301.241px 370.668px 423.503px 495.465px 527.151px 600.802px 668.962px 725.996px " y="503.394px 503.394px 503.394px 503.394px 503.394px 503.394px 503.394px 503.394px 503.394px 503.394px 503.394px 503.394px ">xtraordinary</tspan></text><text x="212.844px" y="639.617px" style="font-family:'DIN-Bold', 'DIN';font-weight:700;font-size:135.443px;fill:#fbfbd8;">a<tspan x="281.003px 322.124px 361.078px 429.237px 460.923px 516.603px " y="639.617px 639.617px 639.617px 639.617px 639.617px 639.617px ">ffairs</tspan></text></svg>