<?xml version="1.0" encoding="UTF-8" standalone="no"?><!DOCTYPE svg PUBLIC "-//W3C//DTD SVG 1.1//EN" "http://www.w3.org/Graphics/SVG/1.1/DTD/svg11.dtd"><svg width="100%" height="100%" viewBox="0 0 50 10" version="1.1" xmlns="http://www.w3.org/2000/svg" xmlns:xlink="http://www.w3.org/1999/xlink" xml:space="preserve" xmlns:serif="http://www.serif.com/" style="fill-rule:evenodd;clip-rule:evenodd;stroke-linejoin:round;stroke-miterlimit:2;"><rect id="colorbar" x="0" y="0" width="50" height="10" style="fill:none;"/><clipPath id="_clip1"><rect x="0" y="0" width="50" height="10"/></clipPath><g clip-path="url(#_clip1)"><g><path d="M0,10l0,-10l8.333,0l0,10l-8.333,0Z" style="fill:#91b650;"/><path d="M16.667,10l0,-10l8.333,0l0,10l-8.333,0Z" style="fill:#d37d29;"/><path d="M33.333,10l0,-10l8.334,0l0,10l-8.334,0Z" style="fill:#7a4794;"/><path d="M8.333,10l0,-10l8.334,0l0,10l-8.334,0Z" style="fill:#e7b237;"/><path d="M25,10l0,-10l8.333,0l0,10l-8.333,0Z" style="fill:#b7363e;"/><path d="M41.667,10l0,-10l8.333,0l0,10l-8.333,0Z" style="fill:#5fa3d9;"/></g></g></svg>